<svg width="96" height="32" viewBox="0 0 96 32" fill="none" xmlns="http://www.w3.org/2000/svg" aria-hidden="true"><path fill-rule="evenodd" clip-rule="evenodd" d="M13.2562 8.82992C14.4757 8.82992 15.5822 9.32675 16.3726 10.1171C18.0889 11.8335 20.8892 11.8335 22.6281 10.1171C24.3444 8.40085 24.3444 5.60056 22.6281 3.86168C20.2343 1.49047 16.9146 0 13.2562 0C5.93931 0 0 5.93931 0 13.2562C0 16.9146 1.49047 20.2343 3.88426 22.6281L13.2562 32L22.6281 22.6281C24.3444 20.9118 24.3444 18.1115 22.6281 16.3726C20.9118 14.6563 18.1115 14.6563 16.3726 16.3726L13.2562 19.5116L10.1397 16.3726C9.34933 15.5822 8.85251 14.4757 8.85251 13.2562C8.82992 10.8172 10.8172 8.82992 13.2562 8.82992ZM8.58147 17.9534L13.2787 22.6507L17.976 17.9534C18.8341 17.0953 20.2343 17.0953 21.0924 17.9534C21.9506 18.8116 21.9506 20.2117 21.0924 21.0699L13.2787 28.8836L5.44244 21.0699C3.45515 19.06 2.21309 16.3049 2.21309 13.2562C2.21309 7.1588 7.15875 2.21313 13.2561 2.21313C16.3048 2.21313 19.0599 3.4552 21.0698 5.44249C21.928 6.30064 21.928 7.70079 21.0698 8.55894C20.2117 9.41709 18.8115 9.41709 17.9534 8.55894C16.7565 7.36204 15.0854 6.6168 13.2561 6.6168C9.5977 6.6168 6.61676 9.57517 6.61676 13.2562C6.63934 15.0854 7.36199 16.7565 8.58147 17.9534Z" fill="#fff"></path><path d="M72.8977 1.85181C71.9492 1.85181 71.1814 2.59704 71.1814 3.56811C71.1814 4.51659 71.9492 5.26183 72.8977 5.26183C73.8461 5.26183 74.614 4.51659 74.614 3.56811C74.5914 2.61963 73.8461 1.85181 72.8977 1.85181Z" fill="#fff"></path><path d="M71.6557 19.5342H74.1624V6.95554L71.6557 7.18137V19.5342Z" fill="#fff"></path><path d="M93.3352 6.95555L89.7219 15.2435L85.8602 6.95555H80.8468V5.87157C80.8468 4.58434 81.4566 4.04235 82.6986 4.04235C83.0825 4.04235 83.5342 4.1101 83.9858 4.22301L84.5504 2.2583C83.8052 2.00989 82.9922 1.87439 82.0889 1.87439C79.6499 1.87439 78.3401 3.43261 78.3401 5.71349V6.97813L76.1947 7.15879V9.14609H78.3401V19.5568H80.8468V9.12351H84.1213L88.4798 18.0663C88.1185 18.8567 87.6669 19.7375 86.9668 20.2795C86.3345 20.7763 85.5441 20.8215 84.7762 20.6634L84.1891 22.6958C85.3182 23.1023 86.741 23.0572 87.8024 22.4926C88.9541 21.8603 89.7219 20.686 90.2413 19.5117L96 6.93296H93.3352V6.95555Z" fill="#fff"></path><path fill-rule="evenodd" clip-rule="evenodd" d="M59.4383 8.17503C60.4319 7.20396 61.7869 6.6168 63.3225 6.6168C66.8681 6.63939 69.6006 9.3945 69.6006 13.2562C69.6006 17.1179 66.8681 19.873 63.3225 19.8956C61.7869 19.8956 60.4319 19.3084 59.4383 18.3373V19.5568H57.0897V2.41638L59.4383 2.21313V8.17503ZM59.4608 13.2336C59.4608 15.9435 61.2223 17.6373 63.3225 17.6598C65.4227 17.6598 67.1842 15.9435 67.1842 13.2336C67.1842 10.5236 65.4227 8.82992 63.3225 8.80734C61.1997 8.82992 59.4608 10.5236 59.4608 13.2336Z" fill="#fff"></path><path fill-rule="evenodd" clip-rule="evenodd" d="M48.4178 6.6168C49.9534 6.6168 51.3084 7.20395 52.3021 8.17502V7.15879L54.6507 6.95554V19.5568H52.3021V18.3373C51.3084 19.3084 49.9534 19.8956 48.4178 19.8956C44.8497 19.873 42.1398 17.1179 42.1398 13.2562C42.1398 9.3945 44.8723 6.63938 48.4178 6.6168ZM44.5561 13.2336C44.5561 15.9435 46.3175 17.6373 48.4177 17.6598C50.5179 17.6598 52.2568 15.9435 52.2794 13.2336C52.2794 10.5236 50.5179 8.82992 48.4177 8.80734C46.2949 8.82992 44.5561 10.5236 44.5561 13.2336Z" fill="#fff"></path><path d="M35.8616 8.82992C37.2392 8.85251 38.4813 9.64291 39.1588 10.885L41.1912 9.64291C40.1072 7.79111 38.1651 6.6168 35.8616 6.6168C32.2935 6.63938 29.5836 9.3945 29.5836 13.2562C29.5836 17.1179 32.2935 19.873 35.8616 19.8956C38.1651 19.8956 40.1072 18.7212 41.1912 16.8694L39.1588 15.6274C38.4813 16.8694 37.2392 17.6824 35.8616 17.6824C33.7614 17.6598 32 15.9661 32 13.2562C32 10.5462 33.7614 8.85251 35.8616 8.82992Z" fill="#fff"></path></svg>