<svg xmlns="http://www.w3.org/2000/svg" width="475" height="475" fill="none" xmlns:v="https://vecta.io/nano"><g clip-path="url(#E)"><path d="M90 118h45v152H90V118z" fill="#0b0e11"/><path d="M158 118l-41-.016V247h118.038v-93.016c.001-18.918-14.592-34.428-33.134-35.888L180 140l-22-22z" fill="url(#A)"/><path d="M222.525 307.483l28-28.015L326 354.985 298 383l-75.475-75.517z" fill="#6a4c0c"/><path d="M350.018 435.018L406.5 378.5h-57L335 364l-28 28 43.018 43.018z" fill="#14151a"/><path d="M125 215.07H90.06c-14.25 0-21.387-17.24-11.31-27.32l28.75-28.766" stroke="#6a4c0c" stroke-width="32" stroke-linejoin="round"/><path fill-rule="evenodd" d="M117 118l-43 43 27 27 43.18-43.205L117 118z" fill="#328dfd"/><ellipse rx="37.484" ry="37.082" transform="matrix(-.706912 -.707302 .706912 -.707301 178.672 63.7229)" fill="#6a4c0c"/><path d="M204.914 37.495c-14.635-14.642-38.234-14.77-52.712-.284s-14.35 38.098.284 52.74l52.428-52.457z" fill="#14151a"/><path d="M152.157 89.644l67.493-67.53" stroke="#14151a" stroke-width="6.06"/><g fill-rule="evenodd"><path d="M130.9 149.578V118H150v32.726c0 10.364-4.674 19.944-12 27.274l-21 21-13-14 20.79-20.64a20.91 20.91 0 0 0 6.121-14.782z" fill="url(#B)"/><path d="M171.693 309.047v38.707a38.18 38.18 0 0 1-11.176 26.991L103.503 431.8 75.21 403.513 131.693 347v-37.954h40z" fill="#6a4c0c"/></g><path d="M171.542 283.286h8.174l35.423 35.442L253 281l-22-22v-12H117v73.9h54.542v-37.614z" fill="#1d53ab"/><path d="M323 260.132L284 282V169.87L323 148v112.13z" fill="#28d294"/><path d="M245 260.132L284 282V169.87L245 148v112.13z" fill="#54e8b4"/><path d="M245.03 260.113l-39 21.87v-112.13l39-21.87v112.13z" fill="#28d294"/><path d="M167.03 260.113l39 21.87v-112.13l-39-21.87v112.13z" fill="#54e8b4"/><g fill="#6a4c0c"><path d="M134.613 215.532l22.993 23.006 22.993-23.006-22.993-23.006zm165.417 1.335l22.993 23.006 22.993-23.006-22.993-23.006z"/></g><g fill="#f8d33a"><path d="M298 383l28-28.015 9 9.015-28 28-9-9zm-178.017 32.23L91.74 386.988l8.13-8.12 28.243 28.244-8.128 8.12z"/></g><path d="M304.542 111.167h18.833V130h-18.833v-18.833z" fill="url(#C)"/><path fill-rule="evenodd" d="M313.958 35.833a14.13 14.13 0 0 0-14.125 14.125v4.708H281v-4.708C281 31.756 295.756 17 313.958 17s32.96 14.756 32.96 32.958c0 9.1-3.7 17.35-9.654 23.305l-13.888 13.888v9.9h-18.833V79.35l19.404-19.405a14.05 14.05 0 0 0 4.137-9.988 14.13 14.13 0 0 0-14.125-14.125z" fill="url(#C)"/><path d="M364.638 122.56l11.098 11.098-11.098 11.098-11.098-11.098 11.098-11.098z" fill="url(#D)"/><path fill-rule="evenodd" d="M414.58 83.715c-4.597-4.597-12.05-4.597-16.647 0l-2.775 2.775L384.06 75.39l2.775-2.775c10.726-10.726 28.117-10.726 38.843 0a27.47 27.47 0 0 1 0 38.843 27.4 27.4 0 0 1-19.422 8.045h-16.368l-5.828 5.828-11.098-11.098 10.425-10.425h22.87a11.71 11.71 0 0 0 8.324-3.448c4.597-4.597 4.597-12.05 0-16.647z" fill="url(#D)"/><path d="M47 431.693L91.693 387 120 415.307l-16.5 16.5 27.886 27.886H75l-28-28z" fill="#0b0e11"/><path fill="#e6e8ea" d="M295 456h112v4H295z"/></g><defs><linearGradient id="A" x1="181.712" y1="118.234" x2="181.712" y2="246.95" gradientUnits="userSpaceOnUse"><stop offset=".292" stop-color="#328dfd"/><stop offset=".708" stop-color="#1773eb"/></linearGradient><linearGradient id="B" x1="126.5" y1="118" x2="126.5" y2="198" gradientUnits="userSpaceOnUse"><stop stop-color="#1e2026"/><stop offset="1" stop-color="#0b0e11"/></linearGradient><linearGradient id="C" x1="323" y1="130" x2="323" y2="17" gradientUnits="userSpaceOnUse"><stop stop-color="#e56700"/><stop offset="1" stop-color="#ff7e0d"/></linearGradient><linearGradient id="D" x1="411.314" y1="145" x2="411.314" y2="65" gradientUnits="userSpaceOnUse"><stop stop-color="#e56700"/><stop offset="1" stop-color="#ff7e0d"/></linearGradient><clipPath id="E"><path fill="#fff" d="M0 0h475v475H0z"/></clipPath></defs></svg>